<svg id="Layer_1" data-name="Layer 1" xmlns="http://www.w3.org/2000/svg" xmlns:xlink="http://www.w3.org/1999/xlink" viewBox="0 0 260.93 46.9"><defs><style>.cls-1{fill:#e6e7e8;}.cls-2{fill:url(#New_Gradient_Swatch_1);}.cls-3{fill:#6d6e71;}.cls-4{fill:#8b3f2a;}.cls-5{fill:url(#New_Gradient_Swatch_1-2);}</style><linearGradient id="New_Gradient_Swatch_1" x1="162.38" y1="18.63" x2="178.51" y2="18.63" gradientUnits="userSpaceOnUse"><stop offset="0" stop-color="#fff"/><stop offset="1" stop-color="#c7c8ca"/></linearGradient><linearGradient id="New_Gradient_Swatch_1-2" x1="174.98" y1="26.6" x2="217.26" y2="25.37" xlink:href="#New_Gradient_Swatch_1"/></defs><title>FishFriendsLogo_Horizontal_bw</title><path class="cls-1" d="M1.36,35.14q0-4.22-.47-13.49T0,11.87a1.69,1.69,0,0,1,1-1.56A3.54,3.54,0,0,1,2,10a6,6,0,0,1,1.21-.13c.18,0,.56,0,1.13,0a2.94,2.94,0,0,1,1.5.28,1,1,0,0,1,.46,1,.65.65,0,0,1-.37.6,1.89,1.89,0,0,1-.91.2l-.45,0H4c-.85,0-1.27.14-1.27.4,0,1.26.11,2.91.32,4.95q.27,2.55.36,4.83l1.21-.23a8,8,0,0,1,1.34-.17,1.21,1.21,0,0,1,.86.35,1.06,1.06,0,0,1,.36.78.76.76,0,0,1-.59.73l-.43.16a3.19,3.19,0,0,1-.88.17l-1.37.11h-.5a50.55,50.55,0,0,0,.46,5.92q.4,3.93.41,5.93l-.05.15,0,.07a1.7,1.7,0,0,1,0,.47.86.86,0,0,1-.41.75,1.93,1.93,0,0,1-1.09.27C1.8,37.47,1.36,36.69,1.36,35.14Z"/><path class="cls-1" d="M10.68,36.31c0-.59.47-.88,1.41-.88h.5l.45,0a.6.6,0,0,0,.5-.18,1.15,1.15,0,0,0,.14-.66q0-.62-.09-1.92c-.1-.59-.2-1.63-.32-3.13-.28-3.71-.41-6.51-.41-8.4,0-.68,0-1.3,0-1.86l0-1.85a12.24,12.24,0,0,0-.14-2,5.6,5.6,0,0,1-1,.14c-.73,0-1.09-.29-1.09-.87,0-.29.23-.54.68-.76a5.6,5.6,0,0,1,1.73-.47,20,20,0,0,1,3.22-.3,1.49,1.49,0,0,1,.93.31.89.89,0,0,1,.09,1.4,1,1,0,0,1-.75.29,2.81,2.81,0,0,1-.45,0h-.36a1,1,0,0,0-.66.16.73.73,0,0,0-.21.6q0,3.53.55,10.62c.06.87.18,2.16.36,3.85A25.73,25.73,0,0,1,16,33.83v1.39a6.48,6.48,0,0,1,.91,0c1.27,0,1.91.42,1.91,1.27v.22l-1.14.62-.29,0h-.94c-1,0-1.59.08-1.86.08C12,37.4,10.68,37,10.68,36.31Z"/><path class="cls-1" d="M22.06,37.47a1.34,1.34,0,0,1-.66-.95l.5-.61a4.44,4.44,0,0,1,.86.14,7.61,7.61,0,0,0,1,.11,2.16,2.16,0,0,0,1.47-.58,3.46,3.46,0,0,0,1-1.53,9.94,9.94,0,0,0,.59-3.13,8.77,8.77,0,0,0-1.91-5.05l-.5-.69c-.57-.8-1.06-1.52-1.45-2.15a11.61,11.61,0,0,1-1-2,8,8,0,0,1-.55-2.84,7.35,7.35,0,0,1,.91-3.35,3.76,3.76,0,0,1,1.3-1.36,3.49,3.49,0,0,1,1.88-.53,2.94,2.94,0,0,1,1.53.42,1.18,1.18,0,0,1,.7,1,.57.57,0,0,1-.32.51,1.54,1.54,0,0,1-.77.18,2.1,2.1,0,0,1-1-.22c-.67,0-1.2.5-1.59,1.42a5.9,5.9,0,0,0-.5,2.11A5.79,5.79,0,0,0,24,20.47a8,8,0,0,0,1,1.94l1,1.46,1.59,2.4a9.6,9.6,0,0,1,1,2.36,9.79,9.79,0,0,1,.39,2.73,7.72,7.72,0,0,1-1.28,4.22A4.67,4.67,0,0,1,26,37.22a5.39,5.39,0,0,1-2.57.61v.11A3.37,3.37,0,0,1,22.06,37.47Z"/><path class="cls-1" d="M40.3,31.43l0-2.07,0-1.67v-.47a4.68,4.68,0,0,0,0-.7s0-.1-.14-.18-.14-.13-.14-.18v0a2.89,2.89,0,0,1-.81.08,8.79,8.79,0,0,1-1.46-.15l-1.45-.18v4.18c0,.63,0,1.63.13,3s.14,2.33.14,3a1.37,1.37,0,0,1-.36.94,1.23,1.23,0,0,1-1,.4c-.57,0-1-.45-1.22-1.34a14.26,14.26,0,0,1-.37-3.6l.09-3c0-.82,0-1.7,0-2.62V25.72a3.86,3.86,0,0,0,0-.76v-.18L34,22.67c0-.92-.05-2.29-.14-4.11s-.13-3.19-.13-4.11a1,1,0,0,1,.36-.76,1.31,1.31,0,0,1,.91-.33c1,0,1.45.73,1.45,2.18l-.09,4.51c-.06,1.36-.09,2.87-.09,4.55a11.15,11.15,0,0,0,2.45.18h1.69a1.15,1.15,0,0,0,.09-.44c0-1.16-.09-2.88-.28-5.16-.21-2.13-.31-3.87-.31-5.2a.78.78,0,0,1,.38-.67,1.53,1.53,0,0,1,.93-.28,3.32,3.32,0,0,1,.91.18l.41.15q0,5.16.46,13.78l.4,9.2a.88.88,0,0,1-.47.8,2.06,2.06,0,0,1-1.12.29Q40.3,37.43,40.3,31.43Z"/><path class="cls-1" d="M58.25,35.14q0-4.22-.48-13.49c-.32-6.18-.61-9.44-.89-9.78a1.71,1.71,0,0,1,1-1.56,3.54,3.54,0,0,1,1-.31,6,6,0,0,1,1.21-.13c.18,0,.56,0,1.13,0a2.94,2.94,0,0,1,1.5.28,1,1,0,0,1,.46,1,.63.63,0,0,1-.37.6,1.87,1.87,0,0,1-.9.2l-.46,0h-.64c-.84,0-1.27.14-1.27.4,0,1.26.11,2.91.32,4.95q.27,2.55.36,4.83l1.21-.23a8.15,8.15,0,0,1,1.34-.17,1.21,1.21,0,0,1,.86.35,1.07,1.07,0,0,1,.37.78.77.77,0,0,1-.59.73l-.44.16a3.11,3.11,0,0,1-.88.17l-1.37.11h-.5a52.86,52.86,0,0,0,.46,5.92q.4,3.93.41,5.93l0,.15L61,36a1.79,1.79,0,0,1,0,.47.84.84,0,0,1-.41.75,1.93,1.93,0,0,1-1.09.27C58.68,37.47,58.25,36.69,58.25,35.14Z"/><path class="cls-1" d="M75.37,36.31A17.64,17.64,0,0,1,74,32.42l-.31-1.24A55.66,55.66,0,0,0,72,25.25h-.55c0,.7,0,1.35,0,1.93v2a26.13,26.13,0,0,0,.86,7.6l-.5,1H70.47l-.59-.54,0-2.44q0-3.27-.41-9.93-.36-7.09-.36-9.93,0-1.74,1.5-1.74a7.27,7.27,0,0,1,4,1A3.21,3.21,0,0,1,76.24,17v2.55A4.22,4.22,0,0,1,76,20.83a5,5,0,0,1-.5,1.15l-.86,1.31-.73,1.09.23.87.63,2.58c.43,1.87.84,3.38,1.23,4.55a15.82,15.82,0,0,0,1.45,3.16l.28.44a2.42,2.42,0,0,1,.45,1.16.87.87,0,0,1-.27.64,1,1,0,0,1-.73.27C76.52,38.05,75.92,37.47,75.37,36.31Zm-2.06-15a9.17,9.17,0,0,0,.7-3.33,6.52,6.52,0,0,0-.36-2.18,1.78,1.78,0,0,0-.75-.89,2.48,2.48,0,0,0-1.3-.31l-.09.18-.09.33.09,4.29q.09,1.89.09,4.11A3.6,3.6,0,0,0,73.31,21.27Z"/><path class="cls-1" d="M81,36.31c0-.59.47-.88,1.41-.88h.5l.45,0a.58.58,0,0,0,.5-.18,1.15,1.15,0,0,0,.14-.66q0-.62-.09-1.92c-.09-.59-.2-1.63-.32-3.13q-.4-5.56-.41-8.4c0-.68,0-1.3,0-1.86l0-1.85a12.38,12.38,0,0,0-.13-2,5.78,5.78,0,0,1-1,.14c-.72,0-1.09-.29-1.09-.87,0-.29.23-.54.68-.76a5.68,5.68,0,0,1,1.73-.47,20.07,20.07,0,0,1,3.22-.3,1.5,1.5,0,0,1,.94.31.93.93,0,0,1,.38.71.94.94,0,0,1-.29.69,1,1,0,0,1-.75.29,3,3,0,0,1-.46,0h-.36a1.07,1.07,0,0,0-.66.16.72.72,0,0,0-.2.6q0,3.53.54,10.62c.06.87.18,2.16.37,3.85a25.74,25.74,0,0,1,.22,3.42v1.39a6.57,6.57,0,0,1,.91,0c1.27,0,1.91.42,1.91,1.27v.22L88,37.29l-.29,0h-.93c-1,0-1.59.08-1.87.08C82.28,37.4,81,37,81,36.31Z"/><path class="cls-1" d="M93.93,37.58a1.09,1.09,0,0,1-.52-.8V35.11a5.74,5.74,0,0,1,0-.77c0-.51,0-1.28-.13-2.33l-.09-2.32c0-1.19,0-3,.13-5.31q.18-3.16.18-5.31a12.55,12.55,0,0,0-.13-1.53A13.81,13.81,0,0,1,93.18,16c0-1.72.64-2.58,1.91-2.58a15,15,0,0,1,3.48.48c1.31.31,2,.69,2,1.12a.89.89,0,0,1-.38.68,3.16,3.16,0,0,1-.93.49,21.55,21.55,0,0,0-3.46-.73c0,.36,0,.88,0,1.56,0,1,0,1.85,0,2.62-.09,1.16-.13,2-.13,2.62l.13.58.73,0c.24,0,.54,0,.91,0,1.45,0,2.18.34,2.18,1a.8.8,0,0,1-.41.67,1.86,1.86,0,0,1-1.05.27,8.47,8.47,0,0,1-1.27-.07H95.73q.09.95.09,2.76c0,1.22,0,2.31,0,3.28-.09,1.47-.13,2.58-.13,3.31a8.69,8.69,0,0,0,.09,2l1.5,0c.51,0,1.13,0,1.86,0,1.15,0,1.73.29,1.73.87a.85.85,0,0,1-.57.78,3.08,3.08,0,0,1-1.39.28H95A1.85,1.85,0,0,1,93.93,37.58Z"/><path class="cls-1" d="M117.4,37.31a1.54,1.54,0,0,1-.41-.82l-.27-.69v-.18q0-1.2-3.12-8.19t-4.88-10.32V35.4l.18.25c0,.05.09.14.18.26a.55.55,0,0,1,.14.36,1,1,0,0,1-.41.8,1.53,1.53,0,0,1-1,.33c-1,0-1.45-.74-1.45-2.22l0-6.22q0-2.8,0-6.25c0-.78,0-1.91.13-3.39s.14-2.65.14-3.38a3,3,0,0,1,1.64-2.69v.22a1.6,1.6,0,0,1,.36-.07c.7,0,1.57,1,2.63,2.91a43.23,43.23,0,0,1,2.3,4.9q1,2.59,2.7,7.35l.46,1.31c.69,2,1.22,3.37,1.59,4.22a163.92,163.92,0,0,0,.91-18.48v-.47a1.74,1.74,0,0,1,0-.47,1,1,0,0,1,1.09-1.09,1.22,1.22,0,0,1,1,.4,1.55,1.55,0,0,1,.34,1v2.72q-.09,5.61-.55,12.15t-1.09,7.38a10.37,10.37,0,0,1-1.63.29A1.25,1.25,0,0,1,117.4,37.31Z"/><path class="cls-1" d="M127.85,32.89l.09-5.75c0-1.69,0-3.6,0-5.71q0-1.16-.27-3.6c-.15-1.77-.23-2.85-.23-3.23a1,1,0,0,1,.5-.84,1.85,1.85,0,0,1,1.09-.36,8.44,8.44,0,0,1,3.07.56,8.33,8.33,0,0,1,2.61,1.58,10.68,10.68,0,0,1,3.18,4.87,8.92,8.92,0,0,1,.41,2.66,7.83,7.83,0,0,1,0,.87l-.05,1v2a29.25,29.25,0,0,1-.18,3.68,9.73,9.73,0,0,1-1,3.23,9,9,0,0,1-2.64,2.73,13.28,13.28,0,0,1-2.09,1.09H129C128.24,37.65,127.85,36.06,127.85,32.89Zm4.86,2.53a4.17,4.17,0,0,0,1.32-1,7.13,7.13,0,0,0,.84-1.47,9.91,9.91,0,0,0,.56-1.73,17,17,0,0,0,.5-3.35c0-.29,0-.71,0-1.27q0-11-5.32-11.45a20.19,20.19,0,0,0-.31,3.78q0,2.28.36,8,.31,5.06.32,8v.88A3.83,3.83,0,0,0,132.71,35.42Z"/><path class="cls-1" d="M142.73,37.47a1.34,1.34,0,0,1-.66-.95l.5-.61a4.44,4.44,0,0,1,.86.14,7.46,7.46,0,0,0,1,.11,2.16,2.16,0,0,0,1.47-.58,3.46,3.46,0,0,0,1-1.53,9.94,9.94,0,0,0,.59-3.13,8.77,8.77,0,0,0-1.91-5.05l-.5-.69c-.57-.8-1.06-1.52-1.45-2.15a10.94,10.94,0,0,1-1-2,7.74,7.74,0,0,1-.55-2.84,7.35,7.35,0,0,1,.91-3.35,3.68,3.68,0,0,1,1.3-1.36,3.46,3.46,0,0,1,1.88-.53,2.9,2.9,0,0,1,1.52.42,1.19,1.19,0,0,1,.71,1,.57.57,0,0,1-.32.51,1.54,1.54,0,0,1-.77.18,2.14,2.14,0,0,1-1-.22c-.66,0-1.19.5-1.59,1.42a6.12,6.12,0,0,0-.5,2.11,6,6,0,0,0,.41,2.13,8.4,8.4,0,0,0,1.05,1.94l1,1.46,1.59,2.4a9.6,9.6,0,0,1,1,2.36,9.79,9.79,0,0,1,.39,2.73,7.72,7.72,0,0,1-1.28,4.22,4.67,4.67,0,0,1-1.79,1.64,5.39,5.39,0,0,1-2.57.61v.11A3.31,3.31,0,0,1,142.73,37.47Z"/><polygon class="cls-2" points="178.51 14.04 174.78 13.63 162.38 4.02 168.51 17.68 164.23 33.23 176.87 22.36 177.02 14.42 178.51 14.04"/><polygon class="cls-3" points="202.16 31.73 200.47 41.84 206.98 37.72 204.03 31.53 202.16 31.73"/><polygon class="cls-1" points="223.95 39.13 217.8 4.02 249.31 27.13 223.95 39.13"/><polygon class="cls-4" points="216.15 21.58 223.06 34.06 220.57 19.86 216.15 21.58"/><polygon class="cls-5" points="220.03 16.73 220.03 16.73 217.8 4.02 164.23 17.68 203.09 32.08 210.39 46.9 223.06 34.06 220.03 16.73"/><path class="cls-1" d="M260.93,23a2.75,2.75,0,1,0-3.67,2.57V39.06a5.61,5.61,0,1,1-11.22,0V38.7l3.17,1.42-5-7.53v6.47a7.46,7.46,0,1,0,14.91,0V25.61A2.73,2.73,0,0,0,260.93,23Zm-2.75-.9a.9.9,0,1,1-.89.9A.9.9,0,0,1,258.18,22.14Z"/><rect class="cls-1" x="257.67" width="1.03" height="19.42"/></svg>