<svg id="Layer_1" data-name="Layer 1" xmlns="http://www.w3.org/2000/svg" xmlns:xlink="http://www.w3.org/1999/xlink" viewBox="0 0 118.27 73.62"><defs><style>.cls-1{fill:#e6e7e8;}.cls-2{fill:url(#New_Gradient_Swatch_1);}.cls-3{fill:#6d6e71;}.cls-4{fill:#8b3f2a;}.cls-5{fill:url(#New_Gradient_Swatch_1-2);}</style><linearGradient id="New_Gradient_Swatch_1" x1="9.68" y1="18.63" x2="25.81" y2="18.63" gradientUnits="userSpaceOnUse"><stop offset="0" stop-color="#fff"/><stop offset="1" stop-color="#c7c8ca"/></linearGradient><linearGradient id="New_Gradient_Swatch_1-2" x1="22.28" y1="26.6" x2="64.56" y2="25.37" xlink:href="#New_Gradient_Swatch_1"/></defs><title>FishFriendsLogo_bw</title><path class="cls-1" d="M1.08,71.32C1.08,69.1,1,65.54.7,60.66S.22,53.2,0,52.94A1.35,1.35,0,0,1,.79,51.7a3.17,3.17,0,0,1,.81-.24,4.73,4.73,0,0,1,.95-.1,8.2,8.2,0,0,1,.9,0,2.45,2.45,0,0,1,1.18.21A.82.82,0,0,1,5,52.3a.52.52,0,0,1-.29.48,1.53,1.53,0,0,1-.72.16l-.36,0h-.5c-.67,0-1,.1-1,.31a38.62,38.62,0,0,0,.25,3.91c.14,1.34.24,2.61.29,3.82l.95-.19a7,7,0,0,1,1.06-.13.93.93,0,0,1,.68.28.81.81,0,0,1,.28.61.6.6,0,0,1-.46.58l-.34.13a2.92,2.92,0,0,1-.7.13l-1.08.08H2.66A42.9,42.9,0,0,0,3,67.12c.22,2.07.33,3.63.33,4.69l0,.11,0,.06a1.64,1.64,0,0,1,0,.37.68.68,0,0,1-.32.59,1.56,1.56,0,0,1-.86.22C1.42,73.16,1.08,72.54,1.08,71.32Z"/><path class="cls-1" d="M8.43,72.24c0-.46.37-.69,1.12-.69h.39l.36,0a.45.45,0,0,0,.39-.15.82.82,0,0,0,.11-.51c0-.33,0-.84-.07-1.53-.07-.46-.16-1.28-.25-2.47-.22-2.93-.32-5.14-.32-6.63q0-.81,0-1.47l0-1.46a9.83,9.83,0,0,0-.11-1.58,4.36,4.36,0,0,1-.83.11c-.57,0-.86-.23-.86-.68,0-.23.18-.44.54-.61a4.93,4.93,0,0,1,1.36-.37A16.8,16.8,0,0,1,12.88,54a1.15,1.15,0,0,1,.74.24.72.72,0,0,1,.07,1.11.82.82,0,0,1-.59.23,1.79,1.79,0,0,1-.36,0h-.29a.81.81,0,0,0-.52.13.57.57,0,0,0-.16.47q0,2.79.43,8.39c.05.69.14,1.7.29,3a20,20,0,0,1,.18,2.7v1.1a5.86,5.86,0,0,1,.72,0c1,0,1.5.33,1.5,1v.17L14,73l-.24,0H13l-1.47.06C9.47,73.1,8.43,72.81,8.43,72.24Z"/><path class="cls-1" d="M17.42,73.16a1.08,1.08,0,0,1-.52-.75l.4-.49A3.11,3.11,0,0,1,18,72a6.64,6.64,0,0,0,.82.08A1.72,1.72,0,0,0,20,71.66a2.71,2.71,0,0,0,.77-1.2A7.89,7.89,0,0,0,21.21,68a6.9,6.9,0,0,0-1.51-4l-.39-.54c-.46-.63-.84-1.2-1.15-1.7a8.31,8.31,0,0,1-.79-1.61,6.1,6.1,0,0,1-.43-2.24,5.71,5.71,0,0,1,.72-2.64,2.76,2.76,0,0,1,1-1.07,2.72,2.72,0,0,1,1.49-.42,2.31,2.31,0,0,1,1.2.33.94.94,0,0,1,.56.79.44.44,0,0,1-.26.4,1.15,1.15,0,0,1-.61.14,1.65,1.65,0,0,1-.75-.17c-.53,0-.94.4-1.26,1.12A4.13,4.13,0,0,0,19,59.73a6.69,6.69,0,0,0,.83,1.54l.79,1.14,1.25,1.9a7.09,7.09,0,0,1,.81,1.87A7.87,7.87,0,0,1,23,68.33a6.1,6.1,0,0,1-1,3.33A3.65,3.65,0,0,1,20.54,73a4.27,4.27,0,0,1-2,.48v.09A2.75,2.75,0,0,1,17.42,73.16Z"/><path class="cls-1" d="M31.83,68.39l0-1.64,0-1.32v-.37a4.29,4.29,0,0,0,0-.55s0-.09-.11-.14-.11-.11-.11-.15v0a2.29,2.29,0,0,1-.64.06,7.71,7.71,0,0,1-1.15-.11L28.78,64V67.3c0,.49,0,1.28.11,2.35S29,71.49,29,72a1.07,1.07,0,0,1-.28.74,1,1,0,0,1-.76.32c-.45,0-.77-.35-1-1.06a11.15,11.15,0,0,1-.29-2.85l.07-2.32c0-.65,0-1.34,0-2.07v-.89a3.23,3.23,0,0,0,0-.6v-.15l.11-1.66c0-.73,0-1.81-.11-3.25s-.11-2.52-.11-3.24a.81.81,0,0,1,.29-.61,1,1,0,0,1,.72-.26c.76,0,1.15.58,1.15,1.73l-.08,3.56c0,1.07-.07,2.27-.07,3.59a9.22,9.22,0,0,0,1.94.14h1.33a1,1,0,0,0,.07-.34c0-.92-.07-2.28-.22-4.08s-.25-3.05-.25-4.11a.62.62,0,0,1,.31-.53,1.26,1.26,0,0,1,.73-.22,2.55,2.55,0,0,1,.72.15l.32.11q0,4.08.36,10.89l.33,7.27a.73.73,0,0,1-.38.63,1.7,1.7,0,0,1-.88.23C32.24,73.13,31.83,71.55,31.83,68.39Z"/><path class="cls-1" d="M46,71.32c0-2.22-.12-5.78-.37-10.66s-.49-7.46-.7-7.72a1.35,1.35,0,0,1,.79-1.24,3.2,3.2,0,0,1,.8-.24,4.88,4.88,0,0,1,.95-.1,8.46,8.46,0,0,1,.9,0,2.5,2.5,0,0,1,1.19.21.84.84,0,0,1,.36.76.52.52,0,0,1-.29.48,1.53,1.53,0,0,1-.72.16l-.36,0h-.5c-.67,0-1,.1-1,.31,0,1,.09,2.3.25,3.91.15,1.34.24,2.61.29,3.82l1-.19a7.2,7.2,0,0,1,1.06-.13.93.93,0,0,1,.68.28.82.82,0,0,1,.29.61.6.6,0,0,1-.47.58l-.34.13a2.82,2.82,0,0,1-.7.13L48,62.44h-.4a40.92,40.92,0,0,0,.36,4.68c.22,2.07.32,3.63.32,4.69l0,.11,0,.06a1.14,1.14,0,0,1,0,.37.68.68,0,0,1-.32.59,1.6,1.6,0,0,1-.87.22C46.35,73.16,46,72.54,46,71.32Z"/><path class="cls-1" d="M59.53,72.24a13.53,13.53,0,0,1-1.11-3.08l-.25-1a44,44,0,0,0-1.33-4.68h-.43c0,.55,0,1.06,0,1.52v1.58a20.54,20.54,0,0,0,.69,6l-.4.78h-1L55.19,73l0-1.93c0-1.72-.11-4.34-.33-7.84-.19-3.73-.28-6.35-.28-7.84,0-.92.39-1.38,1.18-1.38a5.81,5.81,0,0,1,3.18.8A2.55,2.55,0,0,1,60.21,57v2A3.37,3.37,0,0,1,60,60a4.31,4.31,0,0,1-.39.9L59,62l-.58.87.18.69.5,2c.34,1.48.66,2.68,1,3.6a12.67,12.67,0,0,0,1.15,2.49l.22.35a1.9,1.9,0,0,1,.36.92.7.7,0,0,1-.22.5.78.78,0,0,1-.57.22Q60.18,73.62,59.53,72.24ZM57.9,60.36a7.28,7.28,0,0,0,.56-2.63A5.13,5.13,0,0,0,58.17,56a1.36,1.36,0,0,0-.59-.7,1.94,1.94,0,0,0-1-.25l-.07.15-.07.25.07,3.39c.05,1,.07,2.08.07,3.25A2.83,2.83,0,0,0,57.9,60.36Z"/><path class="cls-1" d="M64,72.24q0-.69,1.11-.69h.39l.36,0a.48.48,0,0,0,.4-.15.91.91,0,0,0,.1-.51c0-.33,0-.84-.07-1.53-.07-.46-.15-1.28-.25-2.47q-.31-4.39-.32-6.63,0-.81,0-1.47l0-1.46a9.83,9.83,0,0,0-.11-1.58,4.37,4.37,0,0,1-.82.11c-.58,0-.86-.23-.86-.68,0-.23.18-.44.53-.61a4.91,4.91,0,0,1,1.37-.37A16.57,16.57,0,0,1,68.39,54a1.15,1.15,0,0,1,.74.24.7.7,0,0,1,.07,1.11.81.81,0,0,1-.59.23,1.86,1.86,0,0,1-.36,0H68a.81.81,0,0,0-.52.13.6.6,0,0,0-.16.47c0,1.86.15,4.66.43,8.39.05.69.15,1.7.29,3a20,20,0,0,1,.18,2.7v1.1a5.86,5.86,0,0,1,.72,0c1,0,1.5.33,1.5,1v.17l-.89.49-.24,0h-.73l-1.47.06C65,73.1,64,72.81,64,72.24Z"/><path class="cls-1" d="M74.19,73.24a.84.84,0,0,1-.41-.63V71.29a3.54,3.54,0,0,1,0-.6c0-.41,0-1-.11-1.84L73.56,67c0-.94,0-2.34.11-4.19.09-1.67.14-3.07.14-4.2a9.77,9.77,0,0,0-.1-1.2,9.18,9.18,0,0,1-.11-1.21q0-2,1.5-2a12.52,12.52,0,0,1,2.75.37c1,.25,1.56.55,1.56.89a.7.7,0,0,1-.3.54,2.35,2.35,0,0,1-.74.38,18.56,18.56,0,0,0-2.73-.57c0,.29,0,.7,0,1.23,0,.77,0,1.46,0,2.07-.07.92-.1,1.61-.1,2.07l.1.46.58,0a7,7,0,0,1,.71,0c1.15,0,1.73.27,1.73.81a.63.63,0,0,1-.33.53,1.47,1.47,0,0,1-.82.21,8.5,8.5,0,0,1-1-.05h-.89c0,.49.07,1.22.07,2.18s0,1.82,0,2.58c-.07,1.17-.1,2-.1,2.62A6.79,6.79,0,0,0,75.61,72l1.18,0q.61,0,1.47,0c.91,0,1.37.23,1.37.69a.68.68,0,0,1-.45.62,2.6,2.6,0,0,1-1.1.21H75A1.46,1.46,0,0,1,74.19,73.24Z"/><path class="cls-1" d="M92.72,73a1.23,1.23,0,0,1-.32-.65l-.21-.55v-.14q0-.94-2.46-6.46t-3.86-8.16V71.52l.14.2.15.2a.48.48,0,0,1,.1.29.76.76,0,0,1-.32.63,1.23,1.23,0,0,1-.79.26c-.76,0-1.15-.59-1.15-1.75l0-4.91c0-1.48,0-3.13,0-4.94,0-.62,0-1.51.11-2.68s.11-2.09.11-2.67A2.36,2.36,0,0,1,85.44,54v.17a1.32,1.32,0,0,1,.29-.06c.55,0,1.24.77,2.08,2.3a35.39,35.39,0,0,1,1.81,3.88q.81,2,2.13,5.8l.36,1q.83,2.32,1.26,3.33a127.91,127.91,0,0,0,.72-14.59v-.37a1.45,1.45,0,0,1,0-.37.76.76,0,0,1,.86-.86,1,1,0,0,1,.77.31,1.2,1.2,0,0,1,.27.81v2.15c0,2.95-.19,6.15-.43,9.59S95,72.54,94.66,73a7.83,7.83,0,0,1-1.29.23A1,1,0,0,1,92.72,73Z"/><path class="cls-1" d="M101,69.54l.07-4.54c0-1.34,0-2.84,0-4.51,0-.61-.07-1.56-.21-2.84s-.18-2.25-.18-2.56a.81.81,0,0,1,.39-.66,1.47,1.47,0,0,1,.87-.29,6.7,6.7,0,0,1,2.42.45,6.47,6.47,0,0,1,2.06,1.25,8.33,8.33,0,0,1,2.51,3.85,7,7,0,0,1,.33,2.09c0,.25,0,.48,0,.69l0,.78v1.58a22.21,22.21,0,0,1-.14,2.9,7.64,7.64,0,0,1-.82,2.55,7,7,0,0,1-2.09,2.16,10.35,10.35,0,0,1-1.65.86h-2.58C101.29,73.3,101,72.05,101,69.54Zm3.84,2a3.18,3.18,0,0,0,1-.82,5,5,0,0,0,.66-1.16,8,8,0,0,0,.45-1.36,13.66,13.66,0,0,0,.39-2.65,8.5,8.5,0,0,0,0-1q0-8.67-4.2-9.05a15.61,15.61,0,0,0-.25,3c0,1.21.1,3.31.29,6.32.16,2.66.25,4.78.25,6.35v.68A3,3,0,0,0,104.82,71.53Z"/><path class="cls-1" d="M112.73,73.16a1.08,1.08,0,0,1-.52-.75l.39-.49a3.18,3.18,0,0,1,.69.12,6.47,6.47,0,0,0,.82.08,1.72,1.72,0,0,0,1.17-.46,2.8,2.8,0,0,0,.77-1.2,7.85,7.85,0,0,0,.46-2.47,7,7,0,0,0-1.5-4l-.4-.54c-.45-.63-.83-1.2-1.15-1.7a8.92,8.92,0,0,1-.79-1.61,6.31,6.31,0,0,1-.43-2.24,5.71,5.71,0,0,1,.72-2.64,2.83,2.83,0,0,1,1-1.07,2.75,2.75,0,0,1,1.49-.42,2.37,2.37,0,0,1,1.21.33.93.93,0,0,1,.55.79.43.43,0,0,1-.25.4,1.17,1.17,0,0,1-.61.14,1.65,1.65,0,0,1-.75-.17c-.53,0-1,.4-1.26,1.12a4.84,4.84,0,0,0-.39,1.67,4.63,4.63,0,0,0,.32,1.68,6.33,6.33,0,0,0,.83,1.54l.78,1.14,1.26,1.9a7.43,7.43,0,0,1,.81,1.87,7.86,7.86,0,0,1,.3,2.15,6.08,6.08,0,0,1-1,3.33,3.73,3.73,0,0,1-1.42,1.3,4.31,4.31,0,0,1-2,.48v.09A2.7,2.7,0,0,1,112.73,73.16Z"/><polygon class="cls-2" points="25.82 14.04 22.09 13.63 9.68 4.02 15.81 17.68 11.53 33.23 24.18 22.36 24.32 14.42 25.82 14.04"/><polygon class="cls-3" points="49.46 31.73 47.77 41.84 54.28 37.72 51.33 31.53 49.46 31.73"/><polygon class="cls-1" points="71.25 39.13 65.1 4.02 96.61 27.13 71.25 39.13"/><polygon class="cls-4" points="63.45 21.58 70.36 34.06 67.88 19.86 63.45 21.58"/><polygon class="cls-5" points="67.33 16.73 67.33 16.73 65.1 4.02 11.53 17.68 50.4 32.08 57.7 46.9 70.36 34.06 67.33 16.73"/><path class="cls-1" d="M108.23,23a2.75,2.75,0,1,0-3.67,2.57V39.06a5.61,5.61,0,1,1-11.21,0V38.7l3.16,1.42-5-7.53v6.47a7.46,7.46,0,1,0,14.91,0V25.61A2.73,2.73,0,0,0,108.23,23Zm-2.74-.9a.9.9,0,1,1-.9.9A.89.89,0,0,1,105.49,22.14Z"/><rect class="cls-1" x="104.97" width="1.03" height="19.42"/></svg>