<svg id="Layer_1" data-name="Layer 1" xmlns="http://www.w3.org/2000/svg" xmlns:xlink="http://www.w3.org/1999/xlink" viewBox="0 0 260.93 46.9"><defs><style>.cls-1{fill:#8aa192;}.cls-2{fill:url(#New_Gradient_Swatch_2);}.cls-3{fill:#606d64;}.cls-4{fill:#8b3f2a;}.cls-5{fill:url(#New_Gradient_Swatch_2-2);}</style><linearGradient id="New_Gradient_Swatch_2" x1="162.38" y1="18.63" x2="178.51" y2="18.63" gradientUnits="userSpaceOnUse"><stop offset="0" stop-color="#8aa192"/><stop offset="1" stop-color="#687c70"/></linearGradient><linearGradient id="New_Gradient_Swatch_2-2" x1="174.98" y1="26.6" x2="217.26" y2="25.37" xlink:href="#New_Gradient_Swatch_2"/></defs><title>FishFriendsLogo_Horizontal</title><path class="cls-1" d="M1.36,35.63q0-4.22-.47-13.49T0,12.35a1.7,1.7,0,0,1,1-1.56,4.31,4.31,0,0,1,1-.31,6.85,6.85,0,0,1,1.21-.13c.18,0,.56,0,1.13,0a3.07,3.07,0,0,1,1.5.27,1,1,0,0,1,.46,1,.65.65,0,0,1-.37.6,1.78,1.78,0,0,1-.91.2l-.45,0H4c-.85,0-1.27.13-1.27.4,0,1.26.11,2.91.32,4.94.18,1.7.3,3.31.36,4.84l1.21-.24a7.79,7.79,0,0,1,1.34-.16,1.2,1.2,0,0,1,.86.34,1.09,1.09,0,0,1,.36.79.74.74,0,0,1-.59.72l-.43.17a3.23,3.23,0,0,1-.88.16l-1.37.11h-.5a50.85,50.85,0,0,0,.46,5.93q.4,3.93.41,5.92l-.05.15,0,.07a1.79,1.79,0,0,1,0,.48.85.85,0,0,1-.41.74A1.93,1.93,0,0,1,2.68,38C1.8,38,1.36,37.18,1.36,35.63Z"/><path class="cls-1" d="M10.68,36.79q0-.87,1.41-.87h.5L13,36a.6.6,0,0,0,.5-.18,1.14,1.14,0,0,0,.14-.65c0-.41,0-1.06-.09-1.93-.1-.58-.2-1.62-.32-3.13-.28-3.71-.41-6.51-.41-8.4,0-.68,0-1.29,0-1.85L13,18a12.32,12.32,0,0,0-.14-2,5.86,5.86,0,0,1-1,.15c-.73,0-1.09-.29-1.09-.87,0-.29.23-.55.68-.77A5.9,5.9,0,0,1,13.09,14a21.05,21.05,0,0,1,3.22-.29,1.43,1.43,0,0,1,.93.31.88.88,0,0,1,.39.71,1,1,0,0,1-.3.69,1,1,0,0,1-.75.29,1.92,1.92,0,0,1-.45,0h-.36a1,1,0,0,0-.66.17.73.73,0,0,0-.21.6q0,3.53.55,10.61c.06.88.18,2.16.36,3.86A25.51,25.51,0,0,1,16,34.32V35.7a8.56,8.56,0,0,1,.91,0c1.27,0,1.91.43,1.91,1.28v.21l-1.14.62-.29,0-.94,0c-1,0-1.59.07-1.86.07C12,37.88,10.68,37.52,10.68,36.79Z"/><path class="cls-1" d="M22.06,38A1.33,1.33,0,0,1,21.4,37l.5-.62a3.93,3.93,0,0,1,.86.15,7.28,7.28,0,0,0,1,.1,2.16,2.16,0,0,0,1.47-.58,3.37,3.37,0,0,0,1-1.52,10,10,0,0,0,.59-3.13,8.8,8.8,0,0,0-1.91-5.06l-.5-.69c-.57-.8-1.06-1.51-1.45-2.14a11.36,11.36,0,0,1-1-2,7.91,7.91,0,0,1-.55-2.84,7.31,7.31,0,0,1,.91-3.34,3.68,3.68,0,0,1,1.3-1.36,3.4,3.4,0,0,1,1.88-.53,2.94,2.94,0,0,1,1.53.42,1.17,1.17,0,0,1,.7,1,.59.59,0,0,1-.32.51,1.54,1.54,0,0,1-.77.18,2.24,2.24,0,0,1-1-.22c-.67,0-1.2.5-1.59,1.42a5.9,5.9,0,0,0-.5,2.11A5.74,5.74,0,0,0,24,21a7.9,7.9,0,0,0,1,1.95l1,1.45,1.59,2.4a9.51,9.51,0,0,1,1,2.37,9.69,9.69,0,0,1,.39,2.73,7.72,7.72,0,0,1-1.28,4.21A4.59,4.59,0,0,1,26,37.7a5.39,5.39,0,0,1-2.57.62v.11A3.37,3.37,0,0,1,22.06,38Z"/><path class="cls-1" d="M40.3,31.92l0-2.08,0-1.67V27.7a4.44,4.44,0,0,0,0-.69c0-.05,0-.11-.14-.18s-.14-.14-.14-.19v0a3,3,0,0,1-.81.07,9.83,9.83,0,0,1-1.46-.14l-1.45-.19v4.19c0,.63,0,1.62.13,3s.14,2.32.14,3a1.35,1.35,0,0,1-.36.94,1.23,1.23,0,0,1-1,.4c-.57,0-1-.44-1.22-1.34a14.16,14.16,0,0,1-.37-3.6L33.89,30c0-.82,0-1.69,0-2.61V26.21a4,4,0,0,0,0-.77v-.18L34,23.15c0-.92-.05-2.29-.14-4.11s-.13-3.18-.13-4.1a1,1,0,0,1,.36-.77,1.31,1.31,0,0,1,.91-.33c1,0,1.45.73,1.45,2.19l-.09,4.51c-.06,1.35-.09,2.87-.09,4.54a11.15,11.15,0,0,0,2.45.18h1.69a1.11,1.11,0,0,0,.09-.43c0-1.17-.09-2.89-.28-5.17-.21-2.13-.31-3.86-.31-5.2a.79.79,0,0,1,.38-.67,1.59,1.59,0,0,1,.93-.27,3.32,3.32,0,0,1,.91.18l.41.14q0,5.18.46,13.79l.4,9.2a.89.89,0,0,1-.47.8,2.15,2.15,0,0,1-1.12.29Q40.3,37.92,40.3,31.92Z"/><path class="cls-1" d="M58.25,35.63q0-4.22-.48-13.49c-.32-6.19-.61-9.45-.89-9.79a1.72,1.72,0,0,1,1-1.56,4.31,4.31,0,0,1,1-.31,6.85,6.85,0,0,1,1.21-.13c.18,0,.56,0,1.13,0a3.07,3.07,0,0,1,1.5.27,1,1,0,0,1,.46,1,.63.63,0,0,1-.37.6,1.76,1.76,0,0,1-.9.2l-.46,0h-.64c-.84,0-1.27.13-1.27.4,0,1.26.11,2.91.32,4.94.18,1.7.3,3.31.36,4.84l1.21-.24a7.9,7.9,0,0,1,1.34-.16,1.2,1.2,0,0,1,.86.34,1.11,1.11,0,0,1,.37.79.75.75,0,0,1-.59.72l-.44.17a3.15,3.15,0,0,1-.88.16l-1.37.11h-.5a53.18,53.18,0,0,0,.46,5.93q.4,3.93.41,5.92l0,.15,0,.07a1.88,1.88,0,0,1,0,.48.83.83,0,0,1-.41.74,1.93,1.93,0,0,1-1.09.27C58.68,38,58.25,37.18,58.25,35.63Z"/><path class="cls-1" d="M75.37,36.79A17.64,17.64,0,0,1,74,32.9l-.31-1.24A55.08,55.08,0,0,0,72,25.74h-.55c0,.7,0,1.34,0,1.92v2a26.13,26.13,0,0,0,.86,7.6l-.5,1H70.47l-.59-.54,0-2.44q0-3.27-.41-9.92-.36-7.1-.36-9.93c0-1.17.5-1.75,1.5-1.75a7.27,7.27,0,0,1,4,1,3.22,3.22,0,0,1,1.57,2.84v2.54A4.28,4.28,0,0,1,76,21.32a5.15,5.15,0,0,1-.5,1.14l-.86,1.31-.73,1.09.23.88.63,2.58c.43,1.86.84,3.38,1.23,4.54A15.91,15.91,0,0,0,77.46,36l.28.43a2.48,2.48,0,0,1,.45,1.17.86.86,0,0,1-.27.63,1,1,0,0,1-.73.28C76.52,38.54,75.92,38,75.37,36.79Zm-2.06-15a9.17,9.17,0,0,0,.7-3.32,6.53,6.53,0,0,0-.36-2.19,1.82,1.82,0,0,0-.75-.89A2.58,2.58,0,0,0,71.6,15l-.09.19-.09.32.09,4.29q.09,1.9.09,4.11A3.57,3.57,0,0,0,73.31,21.75Z"/><path class="cls-1" d="M81,36.79q0-.87,1.41-.87h.5l.45,0a.58.58,0,0,0,.5-.18,1.14,1.14,0,0,0,.14-.65c0-.41,0-1.06-.09-1.93-.09-.58-.2-1.62-.32-3.13q-.4-5.56-.41-8.4c0-.68,0-1.29,0-1.85l0-1.86a12.46,12.46,0,0,0-.13-2,6.06,6.06,0,0,1-1,.15c-.72,0-1.09-.29-1.09-.87,0-.29.23-.55.68-.77A6,6,0,0,1,83.37,14a21.16,21.16,0,0,1,3.22-.29,1.44,1.44,0,0,1,.94.31.9.9,0,0,1,.38.71,1,1,0,0,1-.29.69,1.05,1.05,0,0,1-.75.29,2,2,0,0,1-.46,0h-.36a1.07,1.07,0,0,0-.66.17.72.72,0,0,0-.2.6q0,3.53.54,10.61c.06.88.18,2.16.37,3.86a25.52,25.52,0,0,1,.22,3.42V35.7a8.72,8.72,0,0,1,.91,0c1.27,0,1.91.43,1.91,1.28v.21L88,37.77l-.29,0-.93,0c-1,0-1.59.07-1.87.07C82.28,37.88,81,37.52,81,36.79Z"/><path class="cls-1" d="M93.93,38.06a1.07,1.07,0,0,1-.52-.8V35.59a5.58,5.58,0,0,1,0-.76c0-.51,0-1.29-.13-2.33l-.09-2.33c0-1.19,0-3,.13-5.31q.18-3.16.18-5.31A12.42,12.42,0,0,0,93.32,18a14.22,14.22,0,0,1-.14-1.53c0-1.72.64-2.58,1.91-2.58a15.51,15.51,0,0,1,3.48.47c1.31.32,2,.69,2,1.13a.89.89,0,0,1-.38.67,2.94,2.94,0,0,1-.93.49A24,24,0,0,0,95.77,16c0,.37,0,.89,0,1.57,0,1,0,1.84,0,2.62-.09,1.16-.13,2-.13,2.61l.13.59.73,0c.24,0,.54,0,.91,0,1.45,0,2.18.34,2.18,1a.79.79,0,0,1-.41.67,1.78,1.78,0,0,1-1.05.28,8.25,8.25,0,0,1-1.27-.08H95.73c.06.63.09,1.56.09,2.77s0,2.3,0,3.27c-.09,1.48-.13,2.58-.13,3.31a8.76,8.76,0,0,0,.09,2l1.5,0c.51,0,1.13,0,1.86,0,1.15,0,1.73.29,1.73.88a.85.85,0,0,1-.57.78,3.22,3.22,0,0,1-1.39.27H95A1.85,1.85,0,0,1,93.93,38.06Z"/><path class="cls-1" d="M117.4,37.79A1.54,1.54,0,0,1,117,37l-.27-.69V36.1q0-1.2-3.12-8.18t-4.88-10.33V35.88l.18.26.18.25a.55.55,0,0,1,.14.36,1,1,0,0,1-.41.8,1.53,1.53,0,0,1-1,.33c-1,0-1.45-.74-1.45-2.22l0-6.22c0-1.86,0-4,0-6.25,0-.78,0-1.9.13-3.38s.14-2.66.14-3.38a3,3,0,0,1,1.64-2.69V14a2.56,2.56,0,0,1,.36-.07c.7,0,1.57,1,2.63,2.91a43.39,43.39,0,0,1,2.3,4.91q1,2.58,2.7,7.34l.46,1.31c.69,2,1.22,3.37,1.59,4.22a163.85,163.85,0,0,0,.91-18.47v-.47a1.86,1.86,0,0,1,0-.48,1,1,0,0,1,1.09-1.09,1.25,1.25,0,0,1,1,.4,1.57,1.57,0,0,1,.34,1v2.73q-.09,5.59-.55,12.14t-1.09,7.39a11.83,11.83,0,0,1-1.63.29A1.2,1.2,0,0,1,117.4,37.79Z"/><path class="cls-1" d="M127.85,33.37l.09-5.74c0-1.7,0-3.6,0-5.71a36.09,36.09,0,0,0-.27-3.6c-.15-1.77-.23-2.85-.23-3.24a1.07,1.07,0,0,1,.5-.84,1.85,1.85,0,0,1,1.09-.36,8.65,8.65,0,0,1,3.07.56A8.35,8.35,0,0,1,134.75,16a10.58,10.58,0,0,1,3.18,4.87,8.86,8.86,0,0,1,.41,2.65,8,8,0,0,1,0,.88l-.05,1v2a29.18,29.18,0,0,1-.18,3.67,9.87,9.87,0,0,1-1,3.24A8.94,8.94,0,0,1,134.39,37a13.24,13.24,0,0,1-2.09,1.1H129C128.24,38.14,127.85,36.55,127.85,33.37Zm4.86,2.53a4,4,0,0,0,1.32-1,6.87,6.87,0,0,0,.84-1.47,9.64,9.64,0,0,0,.56-1.73,16.94,16.94,0,0,0,.5-3.34c0-.29,0-.72,0-1.28q0-11-5.32-11.45a20.19,20.19,0,0,0-.31,3.78q0,2.29.36,8,.31,5.05.32,8v.87A3.83,3.83,0,0,0,132.71,35.9Z"/><path class="cls-1" d="M142.73,38a1.33,1.33,0,0,1-.66-.94l.5-.62a3.93,3.93,0,0,1,.86.15,7.16,7.16,0,0,0,1,.1,2.16,2.16,0,0,0,1.47-.58,3.37,3.37,0,0,0,1-1.52,10,10,0,0,0,.59-3.13,8.8,8.8,0,0,0-1.91-5.06l-.5-.69c-.57-.8-1.06-1.51-1.45-2.14a10.73,10.73,0,0,1-1-2,7.71,7.71,0,0,1-.55-2.84A7.31,7.31,0,0,1,143,15.3a3.6,3.6,0,0,1,1.3-1.36,3.38,3.38,0,0,1,1.88-.53,2.9,2.9,0,0,1,1.52.42,1.18,1.18,0,0,1,.71,1,.59.59,0,0,1-.32.51,1.54,1.54,0,0,1-.77.18,2.29,2.29,0,0,1-1-.22c-.66,0-1.19.5-1.59,1.42a6.12,6.12,0,0,0-.5,2.11A6,6,0,0,0,144.7,21a8.27,8.27,0,0,0,1.05,1.95l1,1.45,1.59,2.4a9.51,9.51,0,0,1,1,2.37,9.69,9.69,0,0,1,.39,2.73,7.72,7.72,0,0,1-1.28,4.21,4.59,4.59,0,0,1-1.79,1.64,5.39,5.39,0,0,1-2.57.62v.11A3.32,3.32,0,0,1,142.73,38Z"/><polygon class="cls-2" points="178.51 14.04 174.78 13.63 162.38 4.02 168.51 17.68 164.23 33.23 176.87 22.36 177.02 14.42 178.51 14.04"/><polygon class="cls-3" points="202.16 31.73 200.47 41.84 206.98 37.72 204.03 31.53 202.16 31.73"/><polygon class="cls-1" points="223.95 39.13 217.8 4.02 249.31 27.13 223.95 39.13"/><polygon class="cls-4" points="216.15 21.58 223.06 34.06 220.57 19.86 216.15 21.58"/><polygon class="cls-5" points="220.03 16.73 220.03 16.73 217.8 4.02 164.23 17.68 203.09 32.08 210.39 46.9 223.06 34.06 220.03 16.73"/><path class="cls-1" d="M260.93,23a2.75,2.75,0,1,0-3.67,2.57V39.06a5.61,5.61,0,1,1-11.22,0V38.7l3.17,1.42-5-7.53v6.47a7.46,7.46,0,1,0,14.91,0V25.61A2.73,2.73,0,0,0,260.93,23Zm-2.75-.9a.9.9,0,1,1-.89.9A.9.9,0,0,1,258.18,22.14Z"/><rect class="cls-1" x="257.67" width="1.03" height="19.42"/></svg>